<svg xmlns="http://www.w3.org/2000/svg" xml:space="preserve" viewBox="0 0 192 192"><path fill="#43A047" d="M123 193H1.04V1.102h191.795V193zM88.5 27.857H48.455v132.955h27.383v-47.165c8.352 0 16.026.333 23.657-.1 6.77-.383 13.674-.917 20.202-2.608 18.272-4.732 29.18-18.073 30.202-35.86 1.157-20.138-8.404-35.68-25.986-42.977-11.145-4.625-22.767-4.27-35.413-4.245"/><path fill="#FCFEFC" d="M89 27.857c12.146-.025 23.768-.38 34.913 4.245 17.582 7.297 27.143 22.84 25.986 42.977-1.023 17.787-11.93 31.128-30.202 35.86-6.528 1.691-13.431 2.225-20.202 2.609-7.63.432-15.305.1-23.657.1v47.164H48.455V27.857zm18.606 63.718c10.42-3.474 14.51-8.818 14.748-19.273.234-10.199-4.285-18.666-12.472-21.259-11.099-3.514-22.555-1.13-33.848-1.83v42.57c10.508 0 20.62 0 31.572-.208"/><path fill="#45A149" d="M107.186 91.68c-10.532.103-20.644.103-31.152.103v-42.57c11.293.7 22.75-1.684 33.848 1.83 8.187 2.593 12.706 11.06 12.472 21.26-.239 10.454-4.328 15.798-15.168 19.376"/></svg>